<svg width="95" height="16" viewBox="0 0 95 16" fill="none" xmlns="http://www.w3.org/2000/svg">
<path d="M9.48689 0.686892L10.8036 4.6628C10.9386 5.07177 11.3276 5.3497 11.7665 5.3497H16.0279C17.0099 5.3497 17.418 6.58236 16.6238 7.14829L13.1757 9.60641C12.8205 9.85986 12.6722 10.3077 12.8073 10.7181L14.124 14.694C14.4279 15.6099 13.3592 16.3717 12.5651 15.8057L9.11697 13.3476C8.76174 13.0942 8.28174 13.0942 7.9265 13.3476L4.47839 15.8057C3.68426 16.3717 2.61562 15.6099 2.91948 14.694L4.23619 10.7181C4.37124 10.3091 4.22298 9.85986 3.86774 9.60641L0.419636 7.14829C-0.374501 6.58236 0.0335761 5.3497 1.0156 5.3497H5.27693C5.71584 5.3497 6.10483 5.07177 6.23988 4.6628L7.55659 0.686892C7.86191 -0.228964 9.18303 -0.228964 9.48689 0.686892Z" fill="#FFC217"/>
<path d="M87.3999 0.686892L88.7166 4.6628C88.8517 5.07177 89.2407 5.3497 89.6796 5.3497H93.9409C94.9229 5.3497 95.331 6.58236 94.5369 7.14829L91.0888 9.60641C90.7335 9.85986 90.5853 10.3077 90.7203 10.7181L92.037 14.694C92.3409 15.6099 91.2722 16.3717 90.4781 15.8057L87.03 13.3476C86.6748 13.0942 86.1948 13.0942 85.8395 13.3476L82.3914 15.8057C81.5973 16.3717 80.5286 15.6099 80.8325 14.694L82.1492 10.7181C82.2843 10.3091 82.136 9.85986 81.7808 9.60641L78.3327 7.14829C77.5385 6.58236 77.9466 5.3497 78.9286 5.3497H83.19C83.6289 5.3497 84.0179 5.07177 84.1529 4.6628L85.4696 0.686892C85.7749 -0.228964 87.0961 -0.228964 87.3999 0.686892Z" fill="#FFC217"/>
<path d="M67.9217 0.686892L69.2384 4.6628C69.3734 5.07177 69.7624 5.3497 70.2013 5.3497H74.4627C75.4447 5.3497 75.8528 6.58236 75.0586 7.14829L71.6105 9.60641C71.2553 9.85986 71.107 10.3077 71.2421 10.7181L72.5588 14.694C72.8626 15.6099 71.794 16.3717 70.9999 15.8057L67.5518 13.3476C67.1965 13.0942 66.7165 13.0942 66.3613 13.3476L62.9132 15.8057C62.119 16.3717 61.0504 15.6099 61.3543 14.694L62.671 10.7181C62.806 10.3091 62.6578 9.85986 62.3025 9.60641L58.8544 7.14829C58.0603 6.58236 58.4684 5.3497 59.4504 5.3497H63.7117C64.1506 5.3497 64.5396 5.07177 64.6747 4.6628L65.9914 0.686892C66.2967 -0.228964 67.6178 -0.228964 67.9217 0.686892Z" fill="#FFC217"/>
<path d="M28.9652 0.686892L30.2819 4.6628C30.4169 5.07177 30.8059 5.3497 31.2448 5.3497H35.5061C36.4882 5.3497 36.8962 6.58236 36.1021 7.14829L32.654 9.60641C32.2988 9.85986 32.1505 10.3077 32.2856 10.7181L33.6023 14.694C33.9061 15.6099 32.8375 16.3717 32.0434 15.8057L28.5952 13.3476C28.24 13.0942 27.76 13.0942 27.4048 13.3476L23.9567 15.8057C23.1625 16.3717 22.0939 15.6099 22.3977 14.694L23.7145 10.7181C23.8495 10.3091 23.7012 9.85986 23.346 9.60641L19.8979 7.14829C19.1038 6.58236 19.5118 5.3497 20.4939 5.3497H24.7552C25.1941 5.3497 25.5831 5.07177 25.7182 4.6628L27.0349 0.686892C27.3402 -0.228964 28.6613 -0.228964 28.9652 0.686892Z" fill="#FFC217"/>
<path d="M48.7912 0.686892L50.1079 4.6628C50.243 5.07177 50.632 5.3497 51.0709 5.3497H55.3322C56.3143 5.3497 56.7223 6.58236 55.9282 7.14829L52.4801 9.60641C52.1249 9.85986 51.9766 10.3077 52.1116 10.7181L53.4284 14.694C53.7322 15.6099 52.6636 16.3717 51.8694 15.8057L48.4213 13.3476C48.0661 13.0942 47.5861 13.0942 47.2309 13.3476L43.7827 15.8057C42.9886 16.3717 41.92 15.6099 42.2238 14.694L43.5405 10.7181C43.6756 10.3091 43.5273 9.85986 43.1721 9.60641L39.724 7.14829C38.9299 6.58236 39.3379 5.3497 40.32 5.3497H44.5813C45.0202 5.3497 45.4092 5.07177 45.5442 4.6628L46.8609 0.686892C47.1663 -0.228964 48.4874 -0.228964 48.7912 0.686892Z" fill="#FFC217"/>
</svg>
