<svg width="75" height="16" viewBox="0 0 75 16" fill="none" xmlns="http://www.w3.org/2000/svg">
<path d="M9.48689 0.686892L10.8036 4.6628C10.9386 5.07177 11.3276 5.3497 11.7665 5.3497H16.0279C17.0099 5.3497 17.418 6.58236 16.6238 7.14829L13.1757 9.60641C12.8205 9.85986 12.6722 10.3077 12.8073 10.7181L14.124 14.694C14.4279 15.6099 13.3592 16.3717 12.5651 15.8057L9.11697 13.3476C8.76174 13.0942 8.28174 13.0942 7.9265 13.3476L4.47839 15.8057C3.68426 16.3717 2.61562 15.6099 2.91948 14.694L4.23619 10.7181C4.37124 10.3091 4.22298 9.85986 3.86774 9.60641L0.419636 7.14829C-0.374501 6.58236 0.0335761 5.3497 1.0156 5.3497H5.27693C5.71584 5.3497 6.10483 5.07177 6.23988 4.6628L7.55659 0.686892C7.86191 -0.228964 9.18303 -0.228964 9.48689 0.686892Z" fill="#FFC217"/>
<path d="M66.6173 0.686892L67.9341 4.6628C68.0691 5.07177 68.4581 5.3497 68.897 5.3497H73.1583C74.1404 5.3497 74.5484 6.58236 73.7543 7.14829L70.3062 9.60641C69.951 9.85986 69.8027 10.3077 69.9377 10.7181L71.2545 14.694C71.5583 15.6099 70.4897 16.3717 69.6955 15.8057L66.2474 13.3476C65.8922 13.0942 65.4122 13.0942 65.057 13.3476L61.6089 15.8057C60.8147 16.3717 59.7461 15.6099 60.0499 14.694L61.3667 10.7181C61.5017 10.3091 61.3534 9.85986 60.9982 9.60641L57.5501 7.14829C56.756 6.58236 57.164 5.3497 58.1461 5.3497H62.4074C62.8463 5.3497 63.2353 5.07177 63.3703 4.6628L64.687 0.686892C64.9924 -0.228964 66.3135 -0.228964 66.6173 0.686892Z" fill="#FFC217"/>
<path d="M28.5304 0.686892L29.8471 4.6628C29.9821 5.07177 30.3711 5.3497 30.81 5.3497H35.0714C36.0534 5.3497 36.4615 6.58236 35.6673 7.14829L32.2192 9.60641C31.864 9.85986 31.7157 10.3077 31.8508 10.7181L33.1675 14.694C33.4713 15.6099 32.4027 16.3717 31.6086 15.8057L28.1605 13.3476C27.8052 13.0942 27.3252 13.0942 26.97 13.3476L23.5219 15.8057C22.7277 16.3717 21.6591 15.6099 21.963 14.694L23.2797 10.7181C23.4147 10.3091 23.2665 9.85986 22.9112 9.60641L19.4631 7.14829C18.669 6.58236 19.0771 5.3497 20.0591 5.3497H24.3204C24.7593 5.3497 25.1483 5.07177 25.2834 4.6628L26.6001 0.686892C26.9054 -0.228964 28.2265 -0.228964 28.5304 0.686892Z" fill="#FFC217"/>
<path d="M47.5739 0.686892L48.8906 4.6628C49.0256 5.07177 49.4146 5.3497 49.8535 5.3497H54.1148C55.0969 5.3497 55.505 6.58236 54.7108 7.14829L51.2627 9.60641C50.9075 9.85986 50.7592 10.3077 50.8943 10.7181L52.211 14.694C52.5148 15.6099 51.4462 16.3717 50.6521 15.8057L47.2039 13.3476C46.8487 13.0942 46.3687 13.0942 46.0135 13.3476L42.5654 15.8057C41.7712 16.3717 40.7026 15.6099 41.0065 14.694L42.3232 10.7181C42.4582 10.3091 42.31 9.85986 41.9547 9.60641L38.5066 7.14829C37.7125 6.58236 38.1206 5.3497 39.1026 5.3497H43.3639C43.8028 5.3497 44.1918 5.07177 44.3269 4.6628L45.6436 0.686892C45.9489 -0.228964 47.27 -0.228964 47.5739 0.686892Z" fill="#FFC217"/>
</svg>
