<svg width="441" height="75" viewBox="0 0 441 75" fill="none" xmlns="http://www.w3.org/2000/svg">
<path d="M16.3032 74.6641C5.87191 74.6641 0.65625 67.1934 0.65625 52.252V20.7505C0.65625 7.10954 6.63281 0.289062 18.5859 0.289062C23.5111 0.289062 27.2879 1.28516 29.9165 3.27734C32.5451 5.24186 34.3574 8.11947 35.3535 11.9102C36.3496 15.7008 36.8477 20.3216 36.8477 25.7725H22.5703V19.2979C22.5703 17.7207 22.349 16.4064 21.9062 15.355C21.4912 14.2759 20.6058 13.7363 19.25 13.7363C17.5622 13.7363 16.4416 14.3035 15.8882 15.438C15.3625 16.5724 15.0996 17.8175 15.0996 19.1733V54.5762C15.0996 56.5407 15.3486 58.1455 15.8467 59.3906C16.3724 60.6081 17.3823 61.2168 18.8765 61.2168C20.4259 61.2168 21.4497 60.6081 21.9478 59.3906C22.4735 58.1455 22.7363 56.513 22.7363 54.4932V44.0757H18.835V31.4585H36.6816V74H30.8296L28.3394 67.8574C25.7938 72.3952 21.7817 74.6641 16.3032 74.6641Z" fill="#FF3026"/>
<path d="M40.5 74L47.5557 0.953125H72.3335L79.2646 74H65.4438L64.4062 62.2129H55.6074L54.6943 74H40.5ZM56.645 50.5503H63.2856L60.0898 13.4043H59.4258L56.645 50.5503Z" fill="#149407"/>
<path d="M83.7471 74V0.953125H105.993L112.136 45.4868L118.237 0.953125H140.69V74H127.326V21.373L118.942 74H105.827L96.9453 21.373V74H83.7471Z" fill="#4617E8"/>
<path d="M147.165 74V0.953125H176.384V15.0645H162.023V29.3003H175.803V43.0381H162.023V59.7642H177.338V74H147.165Z" fill="#FFC217"/>
<path d="M180.202 74L187.258 0.953125H212.036L218.967 74H205.146L204.108 62.2129H195.31L194.396 74H180.202ZM196.347 50.5503H202.988L199.792 13.4043H199.128L196.347 50.5503ZM223.449 74V0.953125H252.668V15.189H238.142V26.8101H251.921V40.8799H238.142V74H223.449ZM257.399 74V0.953125H286.618V15.189H272.092V26.8101H285.871V40.8799H272.092V74H257.399ZM290.686 74V0.953125H304.797V74H290.686ZM310.607 74V0.953125H325.632L332.355 35.9409V0.953125H346.467V74H332.189L324.885 37.4766V74H310.607ZM352.277 74V0.953125H366.389V74H352.277ZM378.466 74V14.9814H369.792V0.953125H401.75V14.9814H393.076V74H378.466ZM414.658 74V49.9692L402.995 0.953125H417.48L421.547 25.6895L425.615 0.953125H440.058L428.437 49.9692V74H414.658Z" fill="black"/>
</svg>
